HIERARCHY
ROOT Hips
{
  OFFSET 74.0196 97.4445 -31.1285
  CHANNELS 6 Xposition Yposition Zposition Zrotation Xrotation Yrotation
  JOINT RightUpLeg
  {
    OFFSET -8.9458 -8.66707 0.101652
    CHANNELS 3 Zrotation Xrotation Yrotation
    JOINT RightLeg
    {
      OFFSET -2.94875e-013 -44.4227 1.3727
      CHANNELS 3 Zrotation Xrotation Yrotation
      JOINT RightFoot
      {
        OFFSET 0.253549 -42.0924 -1.46059
        CHANNELS 3 Zrotation Xrotation Yrotation
        JOINT RightToes
        {
          OFFSET 0.04 -4.41509 8.4991
          CHANNELS 3 Zrotation Xrotation Yrotation
          End Site
          {
            OFFSET -0.08 -0.137448 9.77979
          }
        }
      }
    }
  }
  JOINT Spine
  {
    OFFSET -5.68434e-014 11.8905 -6.39488e-014
    CHANNELS 3 Zrotation Xrotation Yrotation
    JOINT Spine1
    {
      OFFSET 5.68434e-014 25.6574 0.127663
      CHANNELS 3 Zrotation Xrotation Yrotation
      JOINT HEad
      {
        OFFSET 4.26326e-014 8.73416 0.011341
        CHANNELS 3 Zrotation Xrotation Yrotation
        End Site
        {
          OFFSET -0.29 12.7742 2.51395
        }
      }
      JOINT LeftShoulder1
      {
        OFFSET 8.99 -0.362252 -0.22
        CHANNELS 3 Zrotation Xrotation Yrotation
        JOINT LeftArm
        {
          OFFSET 10.2827 -0.00338 0.322123
          CHANNELS 3 Zrotation Xrotation Yrotation
          JOINT LeftForeArm
          {
            OFFSET 32.7669 0.099144 -1.42434
            CHANNELS 3 Zrotation Xrotation Yrotation
            JOINT LeftHand
            {
              OFFSET 27.5643 0.085362 1.02216
              CHANNELS 3 Zrotation Xrotation Yrotation
              End Site
              {
                OFFSET 16.7443 -0.6 1.50291
              }
            }
          }
        }
      }
      JOINT RightShoulder
      {
        OFFSET -8.99 -0.362252 -0.22
        CHANNELS 3 Zrotation Xrotation Yrotation
        JOINT RightArm
        {
          OFFSET -10.2827 -0.00338 0.322123
          CHANNELS 3 Zrotation Xrotation Yrotation
          JOINT RightForeArm
          {
            OFFSET -32.8971 0.099144 -1.42434
            CHANNELS 3 Zrotation Xrotation Yrotation
            JOINT RightHand
            {
              OFFSET -27.4921 0.085362 1.02216
              CHANNELS 3 Zrotation Xrotation Yrotation
              End Site
              {
                OFFSET -16.6312 -0.6 1.50291
              }
            }
          }
        }
      }
    }
  }
  JOINT LeftUpLeg
  {
    OFFSET 8.9458 -8.66707 0.101652
    CHANNELS 3 Zrotation Xrotation Yrotation
    JOINT LeftLeg
    {
      OFFSET 7.10543e-014 -44.4227 1.3727
      CHANNELS 3 Zrotation Xrotation Yrotation
      JOINT LeftFoot
      {
        OFFSET -0.253549 -42.0924 -1.46059
        CHANNELS 3 Zrotation Xrotation Yrotation
        JOINT LeftToes
        {
          OFFSET -0.04 -4.41509 8.4991
          CHANNELS 3 Zrotation Xrotation Yrotation
          End Site
          {
            OFFSET 0.08 -0.047448 9.77979
          }
        }
      }
    }
  }
}
MOTION
Frames:	12
Frame Time:	0.0166667
74.1954 95.9817 98.0597 0.112224 0.513364 166.575 -12.7506 -4.10229 0.37493 11.6619 44.8103 -12.1076 2.37168 -4.03057 -0.22335 -27.1733 -36.5823 -15.0792 0.0830826 4.10603 2.93715 -0.736912 8.24358 6.25848 -7.06723 1.40189 7.56874 -5.03302e-021 -3.88251e-019 1.21329e-020 -64.6401 -38.7048 -19.4807 3.58493 30.7644 -119.128 33.6105 4.25548 -14.7632 18.0012 4.68313 20.2934 68.1419 -32.4484 37.024 -11.8613 48.0766 138.771 -24.3984 14.9888 -28.8034 17.1909 -22.1359 1.06514 0.561393 34.1831 -8.2555 -14.9051 -9.40907 -0.190181 -1.18705 1.60243 6.16704 
74.1776 94.8063 98.1356 0.384171 1.35474 167.693 -12.8948 -2.6238 0.650564 13.2212 45.268 -13.6188 1.59916 -7.1982 -0.175203 -27.3719 -36.4653 -15.8991 -0.0629788 4.58588 2.82678 -0.835783 9.19854 6.10202 -6.92347 0.770218 7.10566 -5.03302e-021 -3.88251e-019 1.21329e-020 -65.1763 -38.236 -19.7292 3.15964 31.4678 -117.825 33.2946 4.25513 -14.9562 17.8427 4.6218 20.1539 69.3588 -32.8513 38.4619 -11.9542 48.5474 138.792 -24.4568 15.0047 -28.8177 17.63 -22.9423 0.876742 0.251322 37.3196 -9.37595 -15.4342 -9.61575 -0.225597 0.193772 -0.0456768 5.74074 
74.1352 93.7267 98.2895 0.525567 2.23768 168.897 -13.3338 -1.01084 0.81161 14.9181 45.4178 -14.958 0.783041 -9.80168 -0.171151 -27.8371 -36.747 -16.4775 -0.412697 5.12653 2.71767 -0.998878 10.2351 5.91662 -6.73948 0.0307956 6.65662 -5.03302e-021 -3.88251e-019 1.21329e-020 -65.6163 -37.7834 -19.9586 2.51037 32.2199 -116.364 32.8702 4.24079 -15.268 17.6679 4.57956 20.12 70.7166 -33.5676 40.1598 -12.001 49.3388 138.755 -24.5824 15.0115 -28.7207 17.9669 -24.6193 0.92604 0.00465919 40.9977 -10.749 -15.9498 -8.73247 -0.114855 2.00515 -2.23493 5.35479 
74.0449 92.7943 98.5013 0.515056 3.09074 170.113 -14.0484 0.564867 0.7624 16.5953 45.307 -16.1297 -0.146801 -11.4218 -0.201641 -28.8973 -37.6576 -17.1067 -0.895017 5.71181 2.62694 -1.24266 11.3202 5.74391 -6.49576 -0.841801 6.22044 -5.03302e-021 -3.88251e-019 1.21329e-020 -65.9205 -37.3102 -20.1285 1.58702 32.946 -114.804 32.3129 4.20837 -15.736 17.4596 4.55533 20.2058 72.1672 -34.5637 42.0526 -12.0089 50.3897 138.71 -24.8263 15.0124 -28.4781 18.1705 -27.1391 1.29149 0.11108 45.0539 -12.6382 -16.8412 -5.89671 0.282128 4.49273 -5.29831 4.78574 
73.8709 92.0243 98.7069 0.379356 3.82302 171.195 -14.9532 1.93169 0.487765 18.0338 45.0525 -17.077 -1.16795 -12.0005 -0.245521 -30.5782 -39.0875 -18.0231 -1.36957 6.29178 2.57968 -1.55065 12.3723 5.65993 -6.21722 -1.81047 5.81201 -5.03302e-021 -3.88251e-019 1.21329e-020 -66.0449 -36.8154 -20.1673 0.360958 33.5911 -113.21 31.5832 4.15957 -16.3954 17.1947 4.53828 20.3848 73.6336 -35.6932 44.0319 -11.9958 51.5546 138.676 -25.1961 15.0073 -28.0896 18.2996 -30.2564 1.95689 0.798276 49.0919 -15.0604 -18.6436 -0.8418 1.10937 7.67213 -9.41328 3.52488 
73.5775 91.4174 98.8179 0.18028 4.35325 171.948 -15.9176 2.95968 0.0820292 18.9907 44.7701 -17.6808 -2.14769 -11.7616 -0.277029 -32.6379 -40.7126 -19.2541 -1.70153 6.79189 2.60826 -1.88532 13.277 5.74666 -5.96618 -2.78041 5.46719 -5.03302e-021 -3.88251e-019 1.21329e-020 -65.9202 -36.3299 -19.9695 -1.13869 34.1088 -111.676 30.6454 4.10726 -17.25 16.8617 4.51281 20.5954 75.0037 -36.736 45.9457 -11.9833 52.6512 138.635 -25.6436 14.9936 -27.5997 18.5167 -33.5564 2.80343 1.99523 52.6292 -17.6735 -21.7425 5.84948 2.53407 11.0697 -14.3761 0.908905 
73.1443 90.991 98.7569 -0.018529 4.63105 172.19 -16.8008 3.5813 -0.285458 19.2434 44.4979 -17.7792 -2.90079 -11.0204 -0.280317 -34.6949 -42.1889 -20.6135 -1.84304 7.14222 2.74265 -2.20727 13.9245 6.05602 -5.81575 -3.63069 5.23936 -5.03302e-021 -3.88251e-019 1.21329e-020 -65.4398 -35.9105 -19.4164 -2.81804 34.4647 -110.314 29.4886 4.07334 -18.2618 16.4752 4.46677 20.7639 76.1396 -37.4656 47.6149 -11.9837 53.5168 138.554 -26.079 14.9689 -27.0891 19.0129 -36.5746 3.67949 3.25874 55.3144 -19.894 -25.9054 12.8644 4.59785 13.7678 -19.4166 -3.25319 
72.571 90.785 98.486 -0.179144 4.63759 171.824 -17.487 3.78891 -0.454754 18.6426 44.1759 -17.2145 -3.26436 -10.0242 -0.25564 -36.3704 -43.2843 -21.8134 -1.85195 7.30791 2.99178 -2.48641 14.2442 6.58835 -5.81839 -4.25635 5.18674 -5.03302e-021 -3.88251e-019 1.21329e-020 -64.4671 -35.6254 -18.4095 -4.55136 34.6545 -109.228 28.1377 4.07902 -19.3669 16.0727 4.39677 20.8311 76.9125 -37.7157 48.8688 -11.9933 54.0459 138.398 -26.4036 14.9354 -26.6528 19.8874 -38.9568 4.4638 4.01596 57.0479 -21.1654 -30.1037 18.763 6.9272 15.1307 -23.4505 -8.05499 
71.8685 90.8322 98.0057 -0.285356 4.37514 170.855 -17.9122 3.62052 -0.360429 17.1567 43.7012 -15.8742 -3.13687 -8.90447 -0.214455 -37.4067 -43.9127 -22.5991 -1.8137 7.28987 3.33425 -2.69786 14.2137 7.29511 -5.98426 -4.60045 5.35807 -5.03302e-021 -3.88251e-019 1.21329e-020 -62.8589 -35.5356 -16.8941 -6.24353 34.7204 -108.469 26.639 4.13479 -20.5139 15.6987 4.30817 20.7711 77.2452 -37.4209 49.579 -11.9931 54.2019 138.157 -26.5458 14.8992 -26.3718 21.1049 -40.5403 5.0698 3.91036 57.879 -21.1126 -32.9638 22.6963 8.76795 15.4377 -25.8795 -11.9508 
71.047 91.1302 97.3336 -0.329732 3.85531 169.355 -18.0772 3.13708 -0.0545876 14.8833 42.99 -13.7095 -2.47842 -7.71088 -0.173218 -37.7086 -44.0916 -22.8286 -1.76659 7.10175 3.73172 -2.8168 13.8419 8.10135 -6.27921 -4.66198 5.78532 -5.03302e-021 -3.88251e-019 1.21329e-020 -60.4923 -35.6828 -14.861 -7.88602 34.753 -107.998 25.0226 4.24117 -21.6942 15.3904 4.21228 20.5971 77.1304 -36.6234 49.6812 -11.9534 54.0129 137.84 -26.4879 14.8665 -26.2797 22.5426 -41.3063 5.44308 2.96079 57.8378 -19.6308 -33.5251 24.5529 9.47711 15.3163 -26.7343 -13.8928 
70.1147 91.6428 96.491 -0.314303 3.08811 167.417 -18.0365 2.38952 0.334137 12.0083 41.9954 -10.7437 -1.2905 -6.44273 -0.149914 -37.3309 -43.8948 -22.488 -1.70825 6.75547 4.14873 -2.82211 13.1492 8.93306 -6.63832 -4.4812 6.48473 -5.03302e-021 -3.88251e-019 1.21329e-020 -57.2859 -36.0954 -12.3311 -9.56691 34.8761 -107.69 23.2708 4.4021 -22.9339 15.1754 4.12382 20.3552 76.6153 -35.4496 49.1773 -11.833 53.5599 137.461 -26.2741 14.838 -26.3401 24.0594 -41.3036 5.56275 1.46795 56.8881 -16.9627 -31.7077 24.5739 8.93513 14.9462 -26.0075 -13.6978 
69.0815 92.3146 95.5025 -0.24855 2.07767 165.113 -17.8549 1.39301 0.664373 8.74101 40.7007 -7.07275 0.406603 -5.05264 -0.163878 -36.453 -43.4365 -21.6753 -1.62339 6.25889 4.56193 -2.69901 12.1562 9.73543 -6.98669 -4.11467 7.46225 -5.03302e-021 -3.88251e-019 1.21329e-020 -53.2026 -36.8167 -9.33374 -11.4276 35.2241 -107.357 21.3195 4.63959 -24.2423 15.0794 4.05925 20.1085 75.7658 -34.0715 48.1252 -11.5805 52.9629 137.007 -25.999 14.8084 -26.4501 25.5638 -40.5993 5.42016 -0.2181 54.9592 -13.6094 -28.2597 23.1333 7.55118 14.0424 -23.5392 -11.7941 
